<?xml version="1.0" standalone="no"?>
<svg viewBox="0 0 200 200" xmlns="http://www.w3.org/2000/svg">
  <path fill="#EEEEEE" d="M41.2,-75.2C50.9,-65.8,54.5,-49.7,62.3,-36C70.2,-22.3,82.3,-11.2,82.7,0.2C83.2,11.7,71.9,23.3,63.3,35.7C54.7,48.1,48.8,61.2,38.7,66.6C28.6,71.9,14.3,69.5,1.9,66.2C-10.5,62.9,-21,58.8,-31.7,53.8C-42.4,48.8,-53.3,42.9,-63.6,33.8C-73.9,24.7,-83.6,12.3,-84.4,-0.5C-85.3,-13.4,-77.3,-26.7,-68.3,-38C-59.3,-49.4,-49.3,-58.7,-37.7,-67C-26.2,-75.2,-13.1,-82.4,1.3,-84.8C15.8,-87.1,31.5,-84.5,41.2,-75.2Z" transform="translate(100 100)" />
</svg>
